# xmcd CD database file
#
# Track frame offsets:
#	150
#	24441
#	50384
#	72025
#	92541
#	109458
#	128152
#	142937
#	162971
#	188510
#	206152
#	231885
#	250399
#	280680
#	298853
#
# Disc length: 4204 seconds
#
# Revision: 0
# Processed by: cddbd v1.4PL0 Copyright (c) Steve Scherf et al.
# Submitted via: CDex 1.50
#
DISCID=d6106a0f
DTITLE=Compil - Lo que se baila en to la habana
DYEAR=1900
DGENRE=Salsa
TTITLE0=Adalberto Alvarez y su Son - Deja la mala noche
TTITLE1=La Raza Band - Chico Divertido
TTITLE2=Contrate - Uchimatra
TTITLE3=Elito Reve y su Charangon - Dale agua al domino
TTITLE4=Edesio Alejandro  y Dayani - Salir de Noche
TTITLE5=Cubanitos 2002 - Matame
TTITLE6=Carlos Manuel y su Clan - Enamora'o
TTITLE7=Buena Fe - Fin de fiesta
TTITLE8=Cesar Pedroso y los que son son - Ay papa
TTITLE9=Van van - vive
TTITLE10=Paulo F.G. - Me gusta tanto
TTITLE11=Destino Elegido - Tu y yo
TTITLE12=La charanga habanera - Soy cubano soy popular
TTITLE13=Sur Caribe - Aprendi Caminando
TTITLE14=Cuarta Dimension - El miniflow
EXTD=
EXTT0=
EXTT1=
EXTT2=
EXTT3=
EXTT4=
EXTT5=
EXTT6=
EXTT7=
EXTT8=
EXTT9=
EXTT10=
EXTT11=
EXTT12=
EXTT13=
EXTT14=
PLAYORDER=
